<svg width="17" height="20" viewBox="0 0 17 20" fill="none" xmlns="http://www.w3.org/2000/svg">
<path d="M8.50455 3.4C10.6045 3.4 12.6045 4.2 14.1045 5.7C17.2045 8.8 17.2045 13.9 14.1045 17C12.3045 18.9 9.80454 19.6 7.40454 19.3L7.90454 17.3C9.60454 17.5 11.4045 16.9 12.7045 15.6C15.0045 13.3 15.0045 9.5 12.7045 7.1C11.6045 6 10.0045 5.4 8.50455 5.4V10L3.50455 5L8.50455 0V3.4ZM2.80455 17C0.204546 14.4 -0.195455 10.4 1.60455 7.3L3.10455 8.8C2.00455 11 2.40455 13.8 4.30455 15.6C4.80455 16.1 5.40455 16.5 6.10455 16.8L5.50455 18.8C4.50455 18.4 3.60455 17.8 2.80455 17Z" fill="#F4F4F4" fill-opacity="0.5"/>
</svg>
